<?xml version="1.0" standalone="no"?>
<!DOCTYPE svg PUBLIC "-//W3C//DTD SVG 20010904//EN"
 "http://www.w3.org/TR/2001/REC-SVG-20010904/DTD/svg10.dtd">
<svg version="1.0" xmlns="http://www.w3.org/2000/svg"
 width="348.000000pt" height="348.000000pt" viewBox="0 0 348.000000 348.000000"
 preserveAspectRatio="xMidYMid meet">

<g transform="translate(0.000000,348.000000) scale(0.100000,-0.100000)"
fill="#000000" stroke="none">
<path d="M1264 2118 c-65 -45 -89 -80 -89 -131 0 -52 23 -84 94 -131 109 -72
252 -101 465 -93 205 8 328 44 415 122 85 77 72 163 -36 234 -60 40 -69 39
-27 -3 66 -66 39 -153 -64 -209 -130 -71 -375 -93 -535 -48 -216 60 -288 160
-189 264 34 36 25 34 -34 -5z"/>
<path d="M1174 1834 c23 -228 74 -353 191 -463 136 -128 349 -168 507 -94 36
17 83 47 105 66 25 23 57 40 86 46 130 30 235 99 279 184 25 50 34 142 19 189
-19 57 -54 83 -113 82 -49 0 -50 0 -46 27 l4 27 -43 -38 c-112 -98 -276 -151
-472 -151 -223 0 -404 59 -491 158 l-33 37 7 -70z m1110 -90 c23 -59 -10 -154
-67 -198 -32 -24 -119 -68 -124 -62 -2 2 10 32 26 67 16 35 36 90 45 121 12
43 23 61 44 72 36 20 68 20 76 0z"/>
<path d="M615 1302 c-116 -71 -198 -285 -151 -396 8 -18 24 -43 37 -55 61 -57
201 13 228 113 6 22 9 42 7 44 -3 2 -34 -19 -71 -47 -74 -57 -89 -61 -106 -30
-30 57 46 329 92 329 13 0 5 -79 -18 -160 -32 -118 -29 -131 21 -85 54 50 98
184 82 249 -14 56 -65 72 -121 38z"/>
<path d="M1145 1298 c-42 -61 -90 -280 -101 -467 -6 -90 -4 -108 9 -119 21
-18 54 -7 60 21 3 12 9 57 12 100 5 55 11 77 21 77 23 0 54 38 54 65 0 21 -5
25 -30 25 l-31 0 7 78 c4 42 10 95 14 117 l8 40 1 -49 c2 -81 24 -40 29 54 4
76 3 80 -16 80 -12 0 -28 -10 -37 -22z"/>
<path d="M1330 1288 c-48 -78 -100 -338 -100 -500 0 -68 2 -77 20 -83 42 -13
53 11 65 138 5 48 11 67 21 67 23 0 54 38 54 65 0 21 -5 25 -31 25 l-31 0 7
84 c4 47 11 100 15 118 7 31 8 30 9 -16 2 -79 22 -41 28 53 6 78 5 81 -16 81
-13 0 -29 -12 -41 -32z"/>
<path d="M2078 1297 c-36 -30 -58 -78 -58 -127 0 -45 10 -69 64 -149 26 -38
36 -64 36 -91 0 -74 -42 -58 -55 21 -8 46 -17 54 -44 37 -52 -32 -44 -89 19
-142 54 -45 107 -30 143 41 38 75 29 147 -28 227 -27 38 -35 59 -35 92 0 45
16 67 31 43 5 -8 9 -38 9 -66 0 -61 12 -67 40 -20 24 39 26 104 4 135 -21 31
-89 31 -126 -1z"/>
<path d="M2368 1303 c-53 -60 -108 -235 -115 -365 -5 -85 -4 -98 11 -104 21
-8 47 15 88 80 l33 51 5 -55 c6 -63 14 -80 39 -80 40 0 48 28 43 158 -4 109
-6 122 -22 122 -17 0 -67 -49 -88 -87 -6 -10 -13 -16 -16 -13 -7 8 19 148 40
216 17 54 19 56 22 28 2 -18 -4 -60 -13 -94 -9 -34 -14 -65 -11 -68 10 -10 48
32 67 73 36 78 16 155 -40 155 -15 0 -35 -8 -43 -17z"/>
<path d="M885 1178 c-87 -48 -144 -184 -115 -273 13 -41 59 -75 101 -75 31 0
84 34 113 73 29 39 36 175 12 212 -20 30 -45 32 -77 6 -24 -19 -24 -19 -4 -41
13 -15 20 -40 23 -84 4 -55 1 -67 -18 -86 -11 -11 -27 -19 -33 -17 -24 7 -38
52 -34 107 4 72 33 131 74 150 18 8 33 21 33 28 0 15 -48 15 -75 0z"/>
<path d="M2613 1171 c-101 -63 -146 -239 -78 -307 46 -46 102 -44 158 6 40 34
57 85 57 166 0 93 -38 128 -90 86 l-22 -18 21 -34 c49 -81 2 -226 -51 -160
-20 25 -24 94 -8 152 14 47 56 98 82 98 28 0 17 24 -13 28 -13 1 -38 -7 -56
-17z"/>
<path d="M1495 1137 c-34 -33 -48 -59 -65 -115 -55 -179 35 -256 149 -127 17
20 31 40 31 45 0 16 -18 20 -32 8 -42 -40 -58 -49 -68 -43 -8 5 -1 14 18 25
65 40 107 194 64 233 -29 26 -51 20 -97 -26z m51 -69 c-4 -29 -16 -71 -26 -93
l-18 -40 -1 41 c-1 49 26 144 41 144 7 0 8 -17 4 -52z"/>
<path d="M1733 1159 c-46 -29 -92 -126 -99 -209 -5 -57 -3 -68 16 -92 24 -31
48 -35 89 -14 30 16 91 80 91 96 0 19 -34 10 -62 -17 -22 -21 -31 -24 -40 -15
-8 8 -8 12 -1 12 18 0 65 53 84 95 23 49 24 113 3 143 -19 27 -40 28 -81 1z
m32 -81 c-12 -75 -25 -115 -41 -129 -15 -12 -16 -9 -10 31 10 65 36 140 48
140 6 0 7 -16 3 -42z"/>
<path d="M2944 1163 c-9 -10 -23 -32 -31 -50 -16 -39 -28 -44 -19 -7 9 33 -1
64 -19 64 -57 0 -130 -429 -80 -470 13 -10 17 -7 29 21 7 19 19 58 26 87 12
53 12 53 32 33 22 -24 28 -25 60 -10 82 37 125 249 67 323 -24 30 -41 33 -65
9z m4 -168 c-3 -60 -8 -79 -25 -96 -25 -25 -43 -18 -43 16 0 32 49 155 62 155
6 0 9 -29 6 -75z"/>
</g>
</svg>
